<svg width="1200" height="1050" viewBox="0 0 1200 1050" fill="none" xmlns="http://www.w3.org/2000/svg">
  <rect width="1200" height="1050" fill="#07111a"/>
  <rect x="66" y="52" width="1068" height="944" rx="26" fill="#09141d" stroke="#334252" stroke-width="2"/>
  <clipPath id="cardClip">
    <rect x="66" y="52" width="1068" height="944" rx="26"/>
  </clipPath>
  <g clip-path="url(#cardClip)">
    <image href="rasen.png" x="66" y="52" width="1068" height="944" preserveAspectRatio="xMidYMid slice"/>
    <rect x="66" y="52" width="1068" height="944" fill="url(#shade)"/>
    <rect x="66" y="52" width="1068" height="944" fill="#06111A" opacity=".24"/>

    <text x="116" y="135" fill="#B7C0CB" font-family="Inter, Arial, sans-serif" font-size="25" font-weight="800">RASENSTATUS</text>
    <text x="116" y="198" fill="#F8FAFC" font-family="Inter, Arial, sans-serif" font-size="52" font-weight="820">Lawn Vision</text>

    <rect x="815" y="107" width="263" height="68" rx="34" fill="#FFFFFF" opacity=".13" stroke="#FFFFFF" stroke-opacity=".16"/>
    <path d="M849 151c0-16 10-27 29-31 0 17-10 27-29 31Zm8-8c4-7 10-13 18-18" stroke="#42D65D" stroke-width="4" stroke-linecap="round" stroke-linejoin="round"/>
    <text x="884" y="151" fill="#E4F6DA" font-family="Inter, Arial, sans-serif" font-size="22" font-weight="760">Aktives Wachstum</text>

    <circle cx="251" cy="410" r="134" fill="#08141D" opacity=".86"/>
    <path d="M251 276 A134 134 0 1 1 123 449" stroke="#42D65D" stroke-width="24" stroke-linecap="round"/>
    <path d="M123 449 A134 134 0 0 1 251 276" stroke="#FFFFFF" stroke-opacity=".18" stroke-width="24" stroke-linecap="round"/>
    <text x="251" y="420" text-anchor="middle" fill="#F8FAFC" font-family="Inter, Arial, sans-serif" font-size="96" font-weight="820">82</text>
    <text x="251" y="489" text-anchor="middle" fill="#CBD5E1" font-family="Inter, Arial, sans-serif" font-size="35" font-weight="720">%</text>

    <text x="438" y="386" fill="#F8FAFC" font-family="Inter, Arial, sans-serif" font-size="42" font-weight="820">Perfektes Pflegefenster</text>
    <text x="438" y="438" fill="#D8E0E8" font-family="Inter, Arial, sans-serif" font-size="27" font-weight="560">Wachstum, Schnitt und Farbe wirken</text>
    <text x="438" y="478" fill="#D8E0E8" font-family="Inter, Arial, sans-serif" font-size="27" font-weight="560">im gruenen Bereich.</text>

    <g transform="translate(108 595)">
      <rect width="310" height="132" rx="14" fill="#0F1C26" opacity=".78" stroke="#C9E2FF" stroke-opacity=".17"/>
      <path d="M40 54c0-16 10-27 29-31 0 17-10 27-29 31Zm8-8c4-7 10-13 18-18" stroke="#78D33F" stroke-width="4" stroke-linecap="round" stroke-linejoin="round"/>
      <text x="82" y="52" fill="#D3DAE3" font-family="Inter, Arial, sans-serif" font-size="18" font-weight="780">MAEHEN</text>
      <text x="34" y="96" fill="#F8FAFC" font-family="Inter, Arial, sans-serif" font-size="32" font-weight="820">Sehr gut</text>
      <text x="34" y="123" fill="#CBD5E1" font-family="Inter, Arial, sans-serif" font-size="19">Ideal fuer den naechsten Schnitt.</text>
    </g>

    <g transform="translate(446 595)">
      <rect width="310" height="132" rx="14" fill="#0F1C26" opacity=".78" stroke="#C9E2FF" stroke-opacity=".17"/>
      <path d="M48 25s19 20 19 34a19 19 0 0 1-38 0c0-14 19-34 19-34Z" stroke="#46A2FF" stroke-width="4"/>
      <text x="82" y="52" fill="#D3DAE3" font-family="Inter, Arial, sans-serif" font-size="18" font-weight="780">WASSER</text>
      <text x="34" y="96" fill="#F8FAFC" font-family="Inter, Arial, sans-serif" font-size="32" font-weight="820">2.4 mm</text>
      <text x="34" y="123" fill="#CBD5E1" font-family="Inter, Arial, sans-serif" font-size="19">Optimal bewaessert.</text>
    </g>

    <g transform="translate(784 595)">
      <rect width="310" height="132" rx="14" fill="#0F1C26" opacity=".78" stroke="#C9E2FF" stroke-opacity=".17"/>
      <path d="M49 24 29 32v16c0 21 13 34 20 38 7-4 20-17 20-38V32l-20-8Z" stroke="#F4B72F" stroke-width="4" stroke-linejoin="round"/>
      <text x="82" y="52" fill="#D3DAE3" font-family="Inter, Arial, sans-serif" font-size="18" font-weight="780">STRESS</text>
      <text x="34" y="96" fill="#F8FAFC" font-family="Inter, Arial, sans-serif" font-size="32" font-weight="820">18 %</text>
      <text x="34" y="123" fill="#CBD5E1" font-family="Inter, Arial, sans-serif" font-size="19">Niedrige Belastung.</text>
    </g>

    <g transform="translate(154 788)">
      <line x1="27" y1="0" x2="852" y2="0" stroke="#CBD5E1" stroke-opacity=".28" stroke-width="3"/>
      <circle cx="27" cy="0" r="25" fill="#65B832" stroke="#91DC5B" stroke-width="2"/>
      <path d="M15 -2l8 8 17-18" stroke="#fff" stroke-width="5" stroke-linecap="round" stroke-linejoin="round"/>
      <circle cx="302" cy="0" r="25" fill="#65B832" stroke="#91DC5B" stroke-width="2"/>
      <path d="M290 -2l8 8 17-18" stroke="#fff" stroke-width="5" stroke-linecap="round" stroke-linejoin="round"/>
      <circle cx="577" cy="0" r="25" fill="#65B832" stroke="#91DC5B" stroke-width="2"/>
      <path d="M565 -2l8 8 17-18" stroke="#fff" stroke-width="5" stroke-linecap="round" stroke-linejoin="round"/>
      <circle cx="852" cy="0" r="25" fill="#65B832" stroke="#91DC5B" stroke-width="2"/>
      <path d="M840 -2l8 8 17-18" stroke="#fff" stroke-width="5" stroke-linecap="round" stroke-linejoin="round"/>
      <text x="27" y="72" text-anchor="middle" fill="#F8FAFC" font-family="Inter, Arial, sans-serif" font-size="25" font-weight="820">Jetzt</text>
      <text x="27" y="112" text-anchor="middle" fill="#CBD5E1" font-family="Inter, Arial, sans-serif" font-size="25">Maehen</text>
      <text x="302" y="72" text-anchor="middle" fill="#F8FAFC" font-family="Inter, Arial, sans-serif" font-size="25" font-weight="820">+24h</text>
      <text x="302" y="112" text-anchor="middle" fill="#CBD5E1" font-family="Inter, Arial, sans-serif" font-size="25">Wuchs</text>
      <text x="577" y="72" text-anchor="middle" fill="#F8FAFC" font-family="Inter, Arial, sans-serif" font-size="25" font-weight="820">+48h</text>
      <text x="577" y="112" text-anchor="middle" fill="#CBD5E1" font-family="Inter, Arial, sans-serif" font-size="25">Stabil</text>
      <text x="852" y="72" text-anchor="middle" fill="#F8FAFC" font-family="Inter, Arial, sans-serif" font-size="25" font-weight="820">+3T</text>
      <text x="852" y="112" text-anchor="middle" fill="#CBD5E1" font-family="Inter, Arial, sans-serif" font-size="25">Pflege</text>
    </g>

    <rect x="108" y="910" width="986" height="112" rx="14" fill="#183623" opacity=".68" stroke="#9AD376" stroke-opacity=".18"/>
    <path d="M149 944h28v8h10v50h-48v-50h10v-8Zm10 38h18M159 966h18" stroke="#78D33F" stroke-width="4" stroke-linecap="round" stroke-linejoin="round"/>
    <text x="220" y="957" fill="#F8FAFC" font-family="Inter, Arial, sans-serif" font-size="25" font-weight="820">Empfehlung</text>
    <text x="220" y="996" fill="#D8E0E8" font-family="Inter, Arial, sans-serif" font-size="25">Gutes Maehfenster. Nicht mehr als ein Drittel der Halmlaenge entfernen.</text>
  </g>
  <defs>
    <linearGradient id="shade" x1="66" y1="52" x2="1134" y2="996" gradientUnits="userSpaceOnUse">
      <stop stop-color="#05101A" stop-opacity=".98"/>
      <stop offset=".48" stop-color="#06131A" stop-opacity=".63"/>
      <stop offset="1" stop-color="#05101A" stop-opacity=".90"/>
    </linearGradient>
  </defs>
</svg>
